<?xml version="1.0" encoding="UTF-8"?>
<svg width="325px" height="19px" viewBox="0 0 325 19" version="1.1" xmlns="http://www.w3.org/2000/svg" xmlns:xlink="http://www.w3.org/1999/xlink">
    <!-- Generator: Sketch 52.5 (67469) - http://www.bohemiancoding.com/sketch -->
    <title>Sketch smooth corner</title>
    <desc>Created with Sketch.</desc>
    <g id="Page-1" stroke="none" stroke-width="1" fill="none" fill-rule="evenodd">
        <g id="Artboard" transform="translate(-66.000000, -99.000000)" fill="#FFFFFF">
            <path d="M66.56,111.504 L69.2,111.504 L69.2,113.88 L69.344,113.928 C69.7120018,114.088001 70.1159978,114.219999 70.556,114.324 C70.9960022,114.428001 71.4639975,114.48 71.96,114.48 C72.8560045,114.48 73.5519975,114.300002 74.048,113.94 C74.5440025,113.579998 74.792,113.096003 74.792,112.488 C74.792,111.943997 74.588002,111.504002 74.18,111.168 C73.771998,110.831998 73.268003,110.536001 72.668,110.28 C72.067997,110.023999 71.4120036,109.768001 70.7,109.512 C69.9879964,109.255999 69.332003,108.932002 68.732,108.54 C68.131997,108.147998 67.628002,107.656003 67.22,107.064 C66.811998,106.471997 66.608,105.704005 66.608,104.76 C66.608,104.039996 66.7479986,103.380003 67.028,102.78 C67.3080014,102.179997 67.6999975,101.664002 68.204,101.232 C68.7080025,100.799998 69.3119965,100.464001 70.016,100.224 C70.7200035,99.9839988 71.5039957,99.864 72.368,99.864 C73.3440049,99.864 74.3039953,99.9519991 75.248,100.128 C76.1920047,100.304001 76.9439972,100.543998 77.504,100.848 L77.504,105.72 L74.864,105.72 L74.864,103.056 C74.8159998,103.056 74.7680002,103.048 74.72,103.032 C74.3679982,102.936 73.988002,102.86 73.58,102.804 C73.171998,102.748 72.768002,102.72 72.368,102.72 C71.5999962,102.72 70.9960022,102.871998 70.556,103.176 C70.1159978,103.480002 69.896,103.887997 69.896,104.4 C69.896,104.928003 70.099998,105.359998 70.508,105.696 C70.916002,106.032002 71.419997,106.335999 72.02,106.608 C72.620003,106.880001 73.2759964,107.151999 73.988,107.424 C74.7000036,107.696001 75.355997,108.027998 75.956,108.42 C76.556003,108.812002 77.059998,109.303997 77.468,109.896 C77.876002,110.488003 78.08,111.231996 78.08,112.128 C78.08,112.992004 77.9200016,113.747997 77.6,114.396 C77.2799984,115.044003 76.8320029,115.587998 76.256,116.028 C75.6799971,116.468002 75.0000039,116.795999 74.216,117.012 C73.4319961,117.228001 72.5840046,117.336 71.672,117.336 C71.063997,117.336 70.5000026,117.288 69.98,117.192 C69.4599974,117.096 68.9800022,116.976001 68.54,116.832 C68.0999978,116.687999 67.7120017,116.536001 67.376,116.376 C67.0399983,116.215999 66.768001,116.080001 66.56,115.968 L66.56,111.504 Z M81.4,100.2 L86.488,100.2 L86.488,109.776 L87.208,109.776 L91.144,105 L94.816,105 L89.968,110.472 L93.112,114.36 L95.344,114.36 L95.344,117 L91.456,117 L87.328,112.032 L86.488,112.032 L86.488,117 L83.368,117 L83.368,102.84 L81.4,102.84 L81.4,100.2 Z M110.616,115.728 C110.407999,115.920001 110.140002,116.107999 109.812,116.292 C109.483998,116.476001 109.100002,116.647999 108.66,116.808 C108.219998,116.968001 107.736003,117.096 107.208,117.192 C106.679997,117.288 106.120003,117.336 105.528,117.336 C104.503995,117.336 103.588004,117.192001 102.78,116.904 C101.971996,116.615999 101.288003,116.196003 100.728,115.644 C100.167997,115.091997 99.7400015,114.428004 99.444,113.652 C99.1479985,112.875996 99,111.992005 99,111 C99,109.943995 99.1679983,109.020004 99.504,108.228 C99.8400017,107.435996 100.299997,106.776003 100.884,106.248 C101.468003,105.719997 102.151996,105.324001 102.936,105.06 C103.720004,104.795999 104.567995,104.664 105.48,104.664 C106.088003,104.664 106.715997,104.743999 107.364,104.904 C108.012003,105.064001 108.607997,105.339998 109.152,105.732 C109.696003,106.124002 110.139998,106.647997 110.484,107.304 C110.828002,107.960003 111,108.791995 111,109.8 C111,110.488003 110.920001,111.231996 110.76,112.032 L102.12,112.032 C102.136,112.544003 102.243999,112.975998 102.444,113.328 C102.644001,113.680002 102.907998,113.967999 103.236,114.192 C103.564002,114.416001 103.939998,114.579999 104.364,114.684 C104.788002,114.788001 105.239998,114.84 105.72,114.84 C106.680005,114.84 107.467997,114.728001 108.084,114.504 C108.700003,114.279999 109.199998,114.008002 109.584,113.688 L110.616,115.728 Z M105.432,107.16 C105.015998,107.16 104.624002,107.215999 104.256,107.328 C103.887998,107.440001 103.556001,107.603999 103.26,107.82 C102.963999,108.036001 102.720001,108.303998 102.528,108.624 C102.335999,108.944002 102.224,109.303998 102.192,109.704 L108.096,109.704 C108.096,108.919996 107.876002,108.300002 107.436,107.844 C106.995998,107.387998 106.328004,107.16 105.432,107.16 Z M116.984,107.64 L114.608,107.64 L114.608,105 L116.984,105 L116.984,102.264 L120.104,101.376 L120.104,105 L126.392,105 L126.392,107.64 L120.104,107.64 L120.104,111.072 C120.104,112.304006 120.335998,113.195997 120.8,113.748 C121.264002,114.300003 121.911996,114.576 122.744,114.576 C123.176002,114.576 123.567998,114.524001 123.92,114.42 C124.272002,114.315999 124.587999,114.184001 124.868,114.024 C125.148001,113.863999 125.403999,113.688001 125.636,113.496 C125.868001,113.303999 126.079999,113.128001 126.272,112.968 L127.712,115.128 C127.439999,115.448002 127.100002,115.739999 126.692,116.004 C126.283998,116.268001 125.844002,116.499999 125.372,116.7 C124.899998,116.900001 124.408003,117.055999 123.896,117.168 C123.383997,117.280001 122.880002,117.336 122.384,117.336 C120.591991,117.336 119.244005,116.836005 118.34,115.836 C117.435995,114.835995 116.984,113.248011 116.984,111.072 L116.984,107.64 Z M143.704,115.848 C143.047997,116.344002 142.280004,116.715999 141.4,116.964 C140.519996,117.212001 139.600005,117.336 138.64,117.336 C137.599995,117.336 136.676004,117.184002 135.868,116.88 C135.059996,116.575998 134.380003,116.148003 133.828,115.596 C133.275997,115.043997 132.856001,114.376004 132.568,113.592 C132.279999,112.807996 132.136,111.944005 132.136,111 C132.136,109.991995 132.303998,109.096004 132.64,108.312 C132.976002,107.527996 133.443997,106.864003 134.044,106.32 C134.644003,105.775997 135.351996,105.364001 136.168,105.084 C136.984004,104.803999 137.871995,104.664 138.832,104.664 C139.728004,104.664 140.567996,104.767999 141.352,104.976 C142.136004,105.184001 142.735998,105.383999 143.152,105.576 L143.152,109.8 L140.512,109.8 L140.512,107.592 C140.015998,107.479999 139.520002,107.424 139.024,107.424 C138.575998,107.424 138.132002,107.491999 137.692,107.628 C137.251998,107.764001 136.860002,107.979999 136.516,108.276 C136.171998,108.572001 135.892001,108.943998 135.676,109.392 C135.459999,109.840002 135.352,110.375997 135.352,111 C135.352,111.512003 135.439999,111.983998 135.616,112.416 C135.792001,112.848002 136.039998,113.223998 136.36,113.544 C136.680002,113.864002 137.075998,114.115999 137.548,114.3 C138.020002,114.484001 138.543997,114.576 139.12,114.576 C140.032005,114.576 140.779997,114.448001 141.364,114.192 C141.948003,113.935999 142.383999,113.712001 142.672,113.52 L143.704,115.848 Z M147,100.2 L151.848,100.2 L151.848,106.344 L151.944,106.344 C152.328002,105.831997 152.839997,105.424002 153.48,105.12 C154.120003,104.815998 154.871996,104.664 155.736,104.664 C156.344003,104.664 156.903997,104.743999 157.416,104.904 C157.928003,105.064001 158.367998,105.327998 158.736,105.696 C159.104002,106.064002 159.391999,106.563997 159.6,107.196 C159.808001,107.828003 159.912,108.607995 159.912,109.536 L159.912,117 L156.792,117 L156.792,110.184 C156.792,109.207995 156.584002,108.504002 156.168,108.072 C155.751998,107.639998 155.208003,107.424 154.536,107.424 C153.943997,107.424 153.400002,107.603998 152.904,107.964 C152.407998,108.324002 152.056001,108.783997 151.848,109.344 L151.848,117 L148.728,117 L148.728,102.84 L147,102.84 L147,100.2 Z M189.448,113.688 C189.448,113.367998 189.252002,113.112001 188.86,112.92 C188.467998,112.727999 187.984003,112.552001 187.408,112.392 C186.831997,112.231999 186.200003,112.068001 185.512,111.9 C184.823997,111.731999 184.192003,111.500001 183.616,111.204 C183.039997,110.907999 182.556002,110.532002 182.164,110.076 C181.771998,109.619998 181.576,109.032004 181.576,108.312 C181.576,107.719997 181.707999,107.200002 181.972,106.752 C182.236001,106.303998 182.595998,105.924002 183.052,105.612 C183.508002,105.299998 184.051997,105.064001 184.684,104.904 C185.316003,104.743999 185.999996,104.664 186.736,104.664 C187.520004,104.664 188.207997,104.719999 188.8,104.832 C189.392003,104.944001 189.907998,105.079999 190.348,105.24 C190.788002,105.400001 191.163998,105.579999 191.476,105.78 C191.788002,105.980001 192.055999,106.159999 192.28,106.32 L190.96,108.456 C190.719999,108.311999 190.444002,108.164001 190.132,108.012 C189.819998,107.859999 189.492002,107.720001 189.148,107.592 C188.803998,107.463999 188.444002,107.36 188.068,107.28 C187.691998,107.2 187.320002,107.16 186.952,107.16 C186.279997,107.16 185.736002,107.247999 185.32,107.424 C184.903998,107.600001 184.696,107.871998 184.696,108.24 C184.696,108.528001 184.891998,108.759999 185.284,108.936 C185.676002,109.112001 186.159997,109.275999 186.736,109.428 C187.312003,109.580001 187.943997,109.743999 188.632,109.92 C189.320003,110.096001 189.951997,110.323999 190.528,110.604 C191.104003,110.884001 191.587998,111.247998 191.98,111.696 C192.372002,112.144002 192.568,112.719996 192.568,113.424 C192.568,114.640006 192.124004,115.595997 191.236,116.292 C190.347996,116.988003 189.032009,117.336 187.288,117.336 C185.911993,117.336 184.724005,117.132002 183.724,116.724 C182.723995,116.315998 181.920003,115.840003 181.312,115.296 L182.752,113.04 C182.960001,113.216001 183.235998,113.411999 183.58,113.628 C183.924002,113.844001 184.311998,114.039999 184.744,114.216 C185.176002,114.392001 185.635998,114.539999 186.124,114.66 C186.612002,114.780001 187.095998,114.84 187.576,114.84 C188.088003,114.84 188.527998,114.752001 188.896,114.576 C189.264002,114.399999 189.448,114.104002 189.448,113.688 Z M201.984,117 L201.984,109.656 C201.984,109.175998 201.952,108.788001 201.888,108.492 C201.824,108.195999 201.740001,107.964001 201.636,107.796 C201.531999,107.627999 201.404001,107.516 201.252,107.46 C201.099999,107.404 200.944001,107.376 200.784,107.376 C200.511999,107.376 200.260001,107.463999 200.028,107.64 C199.795999,107.816001 199.64,108.039999 199.56,108.312 L199.56,117 L196.68,117 L196.68,105 L198.96,105 L199.296,106.32 L199.368,106.32 C199.608001,105.855998 199.959998,105.476001 200.424,105.18 C200.888002,104.883999 201.431997,104.736 202.056,104.736 C202.584003,104.736 203.087998,104.863999 203.568,105.12 C204.048002,105.376001 204.375999,105.823997 204.552,106.464 C204.792001,105.903997 205.159998,105.476001 205.656,105.18 C206.152002,104.883999 206.687997,104.736 207.264,104.736 C207.696002,104.736 208.083998,104.795999 208.428,104.916 C208.772002,105.036001 209.071999,105.247998 209.328,105.552 C209.584001,105.856002 209.779999,106.267997 209.916,106.788 C210.052001,107.308003 210.12,107.975996 210.12,108.792 L210.12,117 L207.24,117 L207.24,109.32 C207.24,108.599996 207.124001,108.096001 206.892,107.808 C206.659999,107.519999 206.376002,107.376 206.04,107.376 C205.751999,107.376 205.504001,107.443999 205.296,107.58 C205.087999,107.716001 204.944,107.935998 204.864,108.24 L204.864,117 L201.984,117 Z M213.44,111 C213.44,109.991995 213.591998,109.096004 213.896,108.312 C214.200002,107.527996 214.631997,106.864003 215.192,106.32 C215.752003,105.775997 216.419996,105.364001 217.196,105.084 C217.972004,104.803999 218.839995,104.664 219.8,104.664 C220.808005,104.664 221.707996,104.815998 222.5,105.12 C223.292004,105.424002 223.959997,105.851997 224.504,106.404 C225.048003,106.956003 225.459999,107.623996 225.74,108.408 C226.020001,109.192004 226.16,110.055995 226.16,111 C226.16,112.008005 226.008002,112.903996 225.704,113.688 C225.399998,114.472004 224.968003,115.135997 224.408,115.68 C223.847997,116.224003 223.180004,116.635999 222.404,116.916 C221.627996,117.196001 220.760005,117.336 219.8,117.336 C218.791995,117.336 217.892004,117.184002 217.1,116.88 C216.307996,116.575998 215.640003,116.148003 215.096,115.596 C214.551997,115.043997 214.140001,114.376004 213.86,113.592 C213.579999,112.807996 213.44,111.944005 213.44,111 Z M216.656,111 C216.656,111.528003 216.727999,112.015998 216.872,112.464 C217.016001,112.912002 217.223999,113.303998 217.496,113.64 C217.768001,113.976002 218.095998,114.235999 218.48,114.42 C218.864002,114.604001 219.303998,114.696 219.8,114.696 C220.728005,114.696 221.483997,114.400003 222.068,113.808 C222.652003,113.215997 222.944,112.280006 222.944,111 C222.944,109.895994 222.672003,109.004003 222.128,108.324 C221.583997,107.643997 220.808005,107.304 219.8,107.304 C219.351998,107.304 218.936002,107.371999 218.552,107.508 C218.167998,107.644001 217.836001,107.863998 217.556,108.168 C217.275999,108.472002 217.056001,108.855998 216.896,109.32 C216.735999,109.784002 216.656,110.343997 216.656,111 Z M229.84,111 C229.84,109.991995 229.991998,109.096004 230.296,108.312 C230.600002,107.527996 231.031997,106.864003 231.592,106.32 C232.152003,105.775997 232.819996,105.364001 233.596,105.084 C234.372004,104.803999 235.239995,104.664 236.2,104.664 C237.208005,104.664 238.107996,104.815998 238.9,105.12 C239.692004,105.424002 240.359997,105.851997 240.904,106.404 C241.448003,106.956003 241.859999,107.623996 242.14,108.408 C242.420001,109.192004 242.56,110.055995 242.56,111 C242.56,112.008005 242.408002,112.903996 242.104,113.688 C241.799998,114.472004 241.368003,115.135997 240.808,115.68 C240.247997,116.224003 239.580004,116.635999 238.804,116.916 C238.027996,117.196001 237.160005,117.336 236.2,117.336 C235.191995,117.336 234.292004,117.184002 233.5,116.88 C232.707996,116.575998 232.040003,116.148003 231.496,115.596 C230.951997,115.043997 230.540001,114.376004 230.26,113.592 C229.979999,112.807996 229.84,111.944005 229.84,111 Z M233.056,111 C233.056,111.528003 233.127999,112.015998 233.272,112.464 C233.416001,112.912002 233.623999,113.303998 233.896,113.64 C234.168001,113.976002 234.495998,114.235999 234.88,114.42 C235.264002,114.604001 235.703998,114.696 236.2,114.696 C237.128005,114.696 237.883997,114.400003 238.468,113.808 C239.052003,113.215997 239.344,112.280006 239.344,111 C239.344,109.895994 239.072003,109.004003 238.528,108.324 C237.983997,107.643997 237.208005,107.304 236.2,107.304 C235.751998,107.304 235.336002,107.371999 234.952,107.508 C234.567998,107.644001 234.236001,107.863998 233.956,108.168 C233.675999,108.472002 233.456001,108.855998 233.296,109.32 C233.135999,109.784002 233.056,110.343997 233.056,111 Z M248.184,107.64 L245.808,107.64 L245.808,105 L248.184,105 L248.184,102.264 L251.304,101.376 L251.304,105 L257.592,105 L257.592,107.64 L251.304,107.64 L251.304,111.072 C251.304,112.304006 251.535998,113.195997 252,113.748 C252.464002,114.300003 253.111996,114.576 253.944,114.576 C254.376002,114.576 254.767998,114.524001 255.12,114.42 C255.472002,114.315999 255.787999,114.184001 256.068,114.024 C256.348001,113.863999 256.603999,113.688001 256.836,113.496 C257.068001,113.303999 257.279999,113.128001 257.472,112.968 L258.912,115.128 C258.639999,115.448002 258.300002,115.739999 257.892,116.004 C257.483998,116.268001 257.044002,116.499999 256.572,116.7 C256.099998,116.900001 255.608003,117.055999 255.096,117.168 C254.583997,117.280001 254.080002,117.336 253.584,117.336 C251.791991,117.336 250.444005,116.836005 249.54,115.836 C248.635995,114.835995 248.184,113.248011 248.184,111.072 L248.184,107.64 Z M261.8,100.2 L266.648,100.2 L266.648,106.344 L266.744,106.344 C267.128002,105.831997 267.639997,105.424002 268.28,105.12 C268.920003,104.815998 269.671996,104.664 270.536,104.664 C271.144003,104.664 271.703997,104.743999 272.216,104.904 C272.728003,105.064001 273.167998,105.327998 273.536,105.696 C273.904002,106.064002 274.191999,106.563997 274.4,107.196 C274.608001,107.828003 274.712,108.607995 274.712,109.536 L274.712,117 L271.592,117 L271.592,110.184 C271.592,109.207995 271.384002,108.504002 270.968,108.072 C270.551998,107.639998 270.008003,107.424 269.336,107.424 C268.743997,107.424 268.200002,107.603998 267.704,107.964 C267.207998,108.324002 266.856001,108.783997 266.648,109.344 L266.648,117 L263.528,117 L263.528,102.84 L261.8,102.84 L261.8,100.2 Z M307.704,115.848 C307.047997,116.344002 306.280004,116.715999 305.4,116.964 C304.519996,117.212001 303.600005,117.336 302.64,117.336 C301.599995,117.336 300.676004,117.184002 299.868,116.88 C299.059996,116.575998 298.380003,116.148003 297.828,115.596 C297.275997,115.043997 296.856001,114.376004 296.568,113.592 C296.279999,112.807996 296.136,111.944005 296.136,111 C296.136,109.991995 296.303998,109.096004 296.64,108.312 C296.976002,107.527996 297.443997,106.864003 298.044,106.32 C298.644003,105.775997 299.351996,105.364001 300.168,105.084 C300.984004,104.803999 301.871995,104.664 302.832,104.664 C303.728004,104.664 304.567996,104.767999 305.352,104.976 C306.136004,105.184001 306.735998,105.383999 307.152,105.576 L307.152,109.8 L304.512,109.8 L304.512,107.592 C304.015998,107.479999 303.520002,107.424 303.024,107.424 C302.575998,107.424 302.132002,107.491999 301.692,107.628 C301.251998,107.764001 300.860002,107.979999 300.516,108.276 C300.171998,108.572001 299.892001,108.943998 299.676,109.392 C299.459999,109.840002 299.352,110.375997 299.352,111 C299.352,111.512003 299.439999,111.983998 299.616,112.416 C299.792001,112.848002 300.039998,113.223998 300.36,113.544 C300.680002,113.864002 301.075998,114.115999 301.548,114.3 C302.020002,114.484001 302.543997,114.576 303.12,114.576 C304.032005,114.576 304.779997,114.448001 305.364,114.192 C305.948003,113.935999 306.383999,113.712001 306.672,113.52 L307.704,115.848 Z M311.84,111 C311.84,109.991995 311.991998,109.096004 312.296,108.312 C312.600002,107.527996 313.031997,106.864003 313.592,106.32 C314.152003,105.775997 314.819996,105.364001 315.596,105.084 C316.372004,104.803999 317.239995,104.664 318.2,104.664 C319.208005,104.664 320.107996,104.815998 320.9,105.12 C321.692004,105.424002 322.359997,105.851997 322.904,106.404 C323.448003,106.956003 323.859999,107.623996 324.14,108.408 C324.420001,109.192004 324.56,110.055995 324.56,111 C324.56,112.008005 324.408002,112.903996 324.104,113.688 C323.799998,114.472004 323.368003,115.135997 322.808,115.68 C322.247997,116.224003 321.580004,116.635999 320.804,116.916 C320.027996,117.196001 319.160005,117.336 318.2,117.336 C317.191995,117.336 316.292004,117.184002 315.5,116.88 C314.707996,116.575998 314.040003,116.148003 313.496,115.596 C312.951997,115.043997 312.540001,114.376004 312.26,113.592 C311.979999,112.807996 311.84,111.944005 311.84,111 Z M315.056,111 C315.056,111.528003 315.127999,112.015998 315.272,112.464 C315.416001,112.912002 315.623999,113.303998 315.896,113.64 C316.168001,113.976002 316.495998,114.235999 316.88,114.42 C317.264002,114.604001 317.703998,114.696 318.2,114.696 C319.128005,114.696 319.883997,114.400003 320.468,113.808 C321.052003,113.215997 321.344,112.280006 321.344,111 C321.344,109.895994 321.072003,109.004003 320.528,108.324 C319.983997,107.643997 319.208005,107.304 318.2,107.304 C317.751998,107.304 317.336002,107.371999 316.952,107.508 C316.567998,107.644001 316.236001,107.863998 315.956,108.168 C315.675999,108.472002 315.456001,108.855998 315.296,109.32 C315.135999,109.784002 315.056,110.343997 315.056,111 Z M328.336,114.36 L331.312,114.36 L331.312,107.64 L328.336,107.64 L328.336,105 L333.736,105 L334.096,106.584 L334.192,106.584 C334.640002,106.055997 335.151997,105.616002 335.728,105.264 C336.304003,104.911998 336.975996,104.736 337.744,104.736 C338.704005,104.736 339.459997,105.087996 340.012,105.792 C340.564003,106.496004 340.84,107.671992 340.84,109.32 L338.032,109.32 C338.032,108.743997 337.948001,108.324001 337.78,108.06 C337.611999,107.795999 337.344002,107.664 336.976,107.664 C336.335997,107.664 335.820002,107.823998 335.428,108.144 C335.035998,108.464002 334.704001,108.831998 334.432,109.248 L334.432,114.36 L339.64,114.36 L339.64,117 L328.336,117 L328.336,114.36 Z M344.088,105 L348.288,105 L348.648,106.584 L348.744,106.584 C349.112002,106.071997 349.639997,105.624002 350.328,105.24 C351.016003,104.855998 351.839995,104.664 352.8,104.664 C353.392003,104.664 353.947997,104.743999 354.468,104.904 C354.988003,105.064001 355.431998,105.327998 355.8,105.696 C356.168002,106.064002 356.459999,106.563997 356.676,107.196 C356.892001,107.828003 357,108.607995 357,109.536 L357,117 L353.88,117 L353.88,110.184 C353.88,109.207995 353.660002,108.504002 353.22,108.072 C352.779998,107.639998 352.224003,107.424 351.552,107.424 C350.959997,107.424 350.420002,107.595998 349.932,107.94 C349.443998,108.284002 349.112001,108.711997 348.936,109.224 L348.936,117 L345.816,117 L345.816,107.64 L344.088,107.64 L344.088,105 Z M373.016,115.728 C372.807999,115.920001 372.540002,116.107999 372.212,116.292 C371.883998,116.476001 371.500002,116.647999 371.06,116.808 C370.619998,116.968001 370.136003,117.096 369.608,117.192 C369.079997,117.288 368.520003,117.336 367.928,117.336 C366.903995,117.336 365.988004,117.192001 365.18,116.904 C364.371996,116.615999 363.688003,116.196003 363.128,115.644 C362.567997,115.091997 362.140001,114.428004 361.844,113.652 C361.547999,112.875996 361.4,111.992005 361.4,111 C361.4,109.943995 361.567998,109.020004 361.904,108.228 C362.240002,107.435996 362.699997,106.776003 363.284,106.248 C363.868003,105.719997 364.551996,105.324001 365.336,105.06 C366.120004,104.795999 366.967995,104.664 367.88,104.664 C368.488003,104.664 369.115997,104.743999 369.764,104.904 C370.412003,105.064001 371.007997,105.339998 371.552,105.732 C372.096003,106.124002 372.539998,106.647997 372.884,107.304 C373.228002,107.960003 373.4,108.791995 373.4,109.8 C373.4,110.488003 373.320001,111.231996 373.16,112.032 L364.52,112.032 C364.536,112.544003 364.643999,112.975998 364.844,113.328 C365.044001,113.680002 365.307998,113.967999 365.636,114.192 C365.964002,114.416001 366.339998,114.579999 366.764,114.684 C367.188002,114.788001 367.639998,114.84 368.12,114.84 C369.080005,114.84 369.867997,114.728001 370.484,114.504 C371.100003,114.279999 371.599998,114.008002 371.984,113.688 L373.016,115.728 Z M367.832,107.16 C367.415998,107.16 367.024002,107.215999 366.656,107.328 C366.287998,107.440001 365.956001,107.603999 365.66,107.82 C365.363999,108.036001 365.120001,108.303998 364.928,108.624 C364.735999,108.944002 364.624,109.303998 364.592,109.704 L370.496,109.704 C370.496,108.919996 370.276002,108.300002 369.836,107.844 C369.395998,107.387998 368.728004,107.16 367.832,107.16 Z M377.536,114.36 L380.512,114.36 L380.512,107.64 L377.536,107.64 L377.536,105 L382.936,105 L383.296,106.584 L383.392,106.584 C383.840002,106.055997 384.351997,105.616002 384.928,105.264 C385.504003,104.911998 386.175996,104.736 386.944,104.736 C387.904005,104.736 388.659997,105.087996 389.212,105.792 C389.764003,106.496004 390.04,107.671992 390.04,109.32 L387.232,109.32 C387.232,108.743997 387.148001,108.324001 386.98,108.06 C386.811999,107.795999 386.544002,107.664 386.176,107.664 C385.535997,107.664 385.020002,107.823998 384.628,108.144 C384.235998,108.464002 383.904001,108.831998 383.632,109.248 L383.632,114.36 L388.84,114.36 L388.84,117 L377.536,117 L377.536,114.36 Z" id="Sketch-smooth-corner"></path>
        </g>
    </g>
</svg>